<svg xmlns="http://www.w3.org/2000/svg" width="1640" height="150" viewBox="0 0 1640 150" font-family="Segoe UI,Helvetica,Arial,sans-serif">
<defs><marker id="m" markerWidth="9" markerHeight="9" refX="7" refY="3" orient="auto" markerUnits="strokeWidth"><path d="M0,0 L8,3 L0,6 Z" fill="#475569"/></marker></defs>
<rect width="1640" height="150" fill="#ffffff"/>
<text x="20" y="26.0" font-family="Segoe UI,Helvetica,Arial,sans-serif" font-size="16" font-weight="800" fill="#0f172a" text-anchor="start">Change Control</text>
<text x="20" y="44.0" font-family="Segoe UI,Helvetica,Arial,sans-serif" font-size="10" font-weight="500" fill="#64748b" text-anchor="start">change request, risk-assessed and approved, triggering requalification</text>
<rect x="20" y="60" width="290" height="78" rx="9" fill="#ecfeff" stroke="#0891b2" stroke-width="1.6"/>
<rect x="20" y="60" width="290" height="20" rx="9" fill="#0891b2"/>
<rect x="20" y="71" width="290" height="9" fill="#0891b2"/>
<text x="165.0" y="75.0" font-family="Segoe UI,Helvetica,Arial,sans-serif" font-size="9.5" font-weight="800" fill="#fff" text-anchor="middle">1 · COLLECT</text>
<text x="165.0" y="96.0" font-family="Segoe UI,Helvetica,Arial,sans-serif" font-size="8.6" font-weight="600" fill="#0f172a" text-anchor="middle">Intake: changeNumber, changeType,</text>
<text x="165.0" y="107.0" font-family="Segoe UI,Helvetica,Arial,sans-serif" font-size="8.6" font-weight="600" fill="#0f172a" text-anchor="middle">requestedBy</text>
<text x="165.0" y="130" font-family="'SF Mono',Consolas,monospace" font-size="7.6" fill="#0891b2" text-anchor="middle">change request form</text>
<line x1="310" y1="99.0" x2="328" y2="99.0" stroke="#475569" stroke-width="1.8" marker-end="url(#m)"/>
<rect x="330" y="60" width="290" height="78" rx="9" fill="#ecfeff" stroke="#0891b2" stroke-width="1.6"/>
<rect x="330" y="60" width="290" height="20" rx="9" fill="#0891b2"/>
<rect x="330" y="71" width="290" height="9" fill="#0891b2"/>
<text x="475.0" y="75.0" font-family="Segoe UI,Helvetica,Arial,sans-serif" font-size="9.5" font-weight="800" fill="#fff" text-anchor="middle">2 · PROCESS</text>
<text x="475.0" y="96.0" font-family="Segoe UI,Helvetica,Arial,sans-serif" font-size="8.6" font-weight="600" fill="#0f172a" text-anchor="middle">Impact assessment; link supplier/site</text>
<text x="475.0" y="130" font-family="'SF Mono',Consolas,monospace" font-size="7.6" fill="#0891b2" text-anchor="middle">impactAssessment field</text>
<line x1="620" y1="99.0" x2="638" y2="99.0" stroke="#475569" stroke-width="1.8" marker-end="url(#m)"/>
<rect x="640" y="60" width="290" height="78" rx="9" fill="#f5f3ff" stroke="#7c3aed" stroke-width="1.6"/>
<rect x="640" y="60" width="290" height="20" rx="9" fill="#7c3aed"/>
<rect x="640" y="71" width="290" height="9" fill="#7c3aed"/>
<text x="785.0" y="75.0" font-family="Segoe UI,Helvetica,Arial,sans-serif" font-size="9.5" font-weight="800" fill="#fff" text-anchor="middle">3 · VALIDATE</text>
<text x="785.0" y="96.0" font-family="Segoe UI,Helvetica,Arial,sans-serif" font-size="8.6" font-weight="600" fill="#0f172a" text-anchor="middle">riskLevel + regulatoryImpact;</text>
<text x="785.0" y="107.0" font-family="Segoe UI,Helvetica,Arial,sans-serif" font-size="8.6" font-weight="600" fill="#0f172a" text-anchor="middle">validationRequired</text>
<text x="785.0" y="130" font-family="'SF Mono',Consolas,monospace" font-size="7.6" fill="#7c3aed" text-anchor="middle">risk-assess vs rules</text>
<line x1="930" y1="99.0" x2="948" y2="99.0" stroke="#475569" stroke-width="1.8" marker-end="url(#m)"/>
<rect x="950" y="60" width="290" height="78" rx="9" fill="#f0fdf4" stroke="#059669" stroke-width="1.6"/>
<rect x="950" y="60" width="290" height="20" rx="9" fill="#059669"/>
<rect x="950" y="71" width="290" height="9" fill="#059669"/>
<text x="1095.0" y="75.0" font-family="Segoe UI,Helvetica,Arial,sans-serif" font-size="9.5" font-weight="800" fill="#fff" text-anchor="middle">4 · REPORT</text>
<text x="1095.0" y="96.0" font-family="Segoe UI,Helvetica,Arial,sans-serif" font-size="8.6" font-weight="600" fill="#0f172a" text-anchor="middle">Multi-step approval</text>
<text x="1095.0" y="107.0" font-family="Segoe UI,Helvetica,Arial,sans-serif" font-size="8.6" font-weight="600" fill="#0f172a" text-anchor="middle">(currentApprovalStep, signature)</text>
<text x="1095.0" y="130" font-family="'SF Mono',Consolas,monospace" font-size="7.6" fill="#059669" text-anchor="middle">approval workflow</text>
<line x1="1240" y1="99.0" x2="1258" y2="99.0" stroke="#475569" stroke-width="1.8" marker-end="url(#m)"/>
<rect x="1260" y="60" width="290" height="78" rx="9" fill="#f1f5f9" stroke="#475569" stroke-width="1.6"/>
<rect x="1260" y="60" width="290" height="20" rx="9" fill="#475569"/>
<rect x="1260" y="71" width="290" height="9" fill="#475569"/>
<text x="1405.0" y="75.0" font-family="Segoe UI,Helvetica,Arial,sans-serif" font-size="9.5" font-weight="800" fill="#fff" text-anchor="middle">5 · RECORD</text>
<text x="1405.0" y="96.0" font-family="Segoe UI,Helvetica,Arial,sans-serif" font-size="8.6" font-weight="600" fill="#0f172a" text-anchor="middle">Approved change + trail;</text>
<text x="1405.0" y="107.0" font-family="Segoe UI,Helvetica,Arial,sans-serif" font-size="8.6" font-weight="600" fill="#0f172a" text-anchor="middle">triggersRequalification</text>
<text x="1405.0" y="130" font-family="'SF Mono',Consolas,monospace" font-size="7.6" fill="#475569" text-anchor="middle">writeAuditTrail(change_control)</text>
</svg>